<svg width="264" height="263" viewBox="0 0 264 263" fill="none" xmlns="http://www.w3.org/2000/svg">
<g filter="url(#filter0_d_381_4620)">
<rect x="4" width="256" height="256" rx="76.8" fill="#2B2A28"/>
</g>
<path d="M82.345 84.4088L70.5661 119.159H58.7208L46.9419 84.4088H56.924L64.9097 110.805L72.8953 84.4088H82.345ZM91.9677 95.1011H82.6513C83.1837 86.2132 90.304 83.4064 98.2897 83.4064C106.608 83.4064 113.263 86.4137 113.263 95.4352V119.159H103.946V112.476H103.614C103.614 112.476 101.484 120.161 92.6334 120.161C86.3112 120.161 81.653 117.221 81.653 110.805C81.653 104.323 86.9768 101.383 92.6997 99.9127C98.4893 98.4425 103.946 97.9745 103.946 94.0987C103.946 91.3588 101.95 89.755 98.2897 89.755C94.2968 89.755 92.1007 91.3588 91.9677 95.1011ZM103.946 101.65C102.416 103.054 99.288 103.788 96.6262 104.457C93.6314 105.192 91.1027 106.729 91.1027 109.803C91.1027 112.476 92.9661 114.147 95.9606 114.147C102.282 114.147 103.946 106.796 103.946 101.65ZM116.567 131.187V84.4088H125.551V89.0867H125.883C125.883 89.0867 128.878 83.4064 136.531 83.4064C146.513 83.4064 151.504 92.0939 151.504 101.784C151.504 111.474 146.513 120.161 136.531 120.161C129.211 120.161 126.216 115.483 126.216 115.483H125.883V131.187H116.567ZM125.551 101.784C125.551 108.065 128.213 113.144 133.869 113.144C139.526 113.144 142.187 108.065 142.187 101.784C142.187 95.502 139.526 90.4232 133.869 90.4232C128.213 90.4232 125.551 95.502 125.551 101.784ZM163.844 95.1011H154.527C155.06 86.2132 162.18 83.4064 170.166 83.4064C178.484 83.4064 185.139 86.4137 185.139 95.4352V119.159H175.822V112.476H175.489C175.489 112.476 173.36 120.161 164.509 120.161C158.187 120.161 153.529 117.221 153.529 110.805C153.529 104.323 158.853 101.383 164.576 99.9127C170.366 98.4425 175.822 97.9745 175.822 94.0987C175.822 91.3588 173.826 89.755 170.166 89.755C166.173 89.755 163.977 91.3588 163.844 95.1011ZM175.822 101.65C174.292 103.054 171.164 103.788 168.502 104.457C165.507 105.192 162.979 106.729 162.979 109.803C162.979 112.476 164.842 114.147 167.837 114.147C174.159 114.147 175.822 106.796 175.822 101.65ZM188.443 119.159V84.4088H197.759V91.7598H202.418C206.411 91.7598 207.741 91.7598 207.741 87.4161V84.4088H217.058V88.4184C217.058 96.1035 214.396 98.4425 204.747 98.4425H197.759V119.159H188.443ZM47.6074 165.164H56.5913C56.5913 165.164 56.5913 171.178 63.9114 171.178C68.9025 171.178 70.2334 168.839 70.2334 166.835C70.2334 159.484 48.2729 165.164 48.2729 151.799C48.2729 145.784 53.9294 140.772 63.246 140.772C76.5554 140.772 78.5518 148.457 78.5518 151.799H69.568C69.568 151.799 69.568 147.121 63.246 147.121C59.5859 147.121 57.5895 148.992 57.5895 151.131C57.5895 157.145 79.5499 152.801 79.5499 165.832C79.5499 172.515 73.8936 177.527 63.9114 177.527C50.2693 177.527 47.6074 169.174 47.6074 165.164ZM104.807 176.525V162.825H91.8301V176.525H82.5134V141.775H91.8301V155.474H104.807V141.775H114.123V176.525H104.807ZM126.46 159.15C126.46 165.431 128.856 170.51 134.779 170.51C140.702 170.51 143.097 165.431 143.097 159.15C143.097 152.868 140.702 147.789 134.779 147.789C128.856 147.789 126.46 152.868 126.46 159.15ZM117.144 159.15C117.144 148.992 123.399 140.772 134.779 140.772C146.159 140.772 152.414 148.992 152.414 159.15C152.414 169.307 146.159 177.527 134.779 177.527C123.399 177.527 117.144 169.307 117.144 159.15ZM155.429 188.553V141.775H164.413V146.453H164.746C164.746 146.453 167.74 140.772 175.393 140.772C185.375 140.772 190.366 149.46 190.366 159.15C190.366 168.839 185.375 177.527 175.393 177.527C168.073 177.527 165.079 172.849 165.079 172.849H164.746V188.553H155.429ZM164.413 159.15C164.413 165.431 167.075 170.51 172.732 170.51C178.388 170.51 181.05 165.431 181.05 159.15C181.05 152.868 178.388 147.789 172.732 147.789C167.075 147.789 164.413 152.868 164.413 159.15Z" fill="white"/>
<path d="M195.687 171.264C195.687 167.959 198.38 165.255 201.672 165.255C204.963 165.255 207.656 167.959 207.656 171.264C207.656 174.57 204.963 177.274 201.672 177.274C198.38 177.274 195.687 174.57 195.687 171.264Z" fill="#E13CF5"/>
<defs>
<filter id="filter0_d_381_4620" x="0.696774" y="0" width="262.606" height="262.606" filterUnits="userSpaceOnUse" color-interpolation-filters="sRGB">
<feFlood flood-opacity="0" result="BackgroundImageFix"/>
<feColorMatrix in="SourceAlpha" type="matrix" values="0 0 0 0 0 0 0 0 0 0 0 0 0 0 0 0 0 0 127 0" result="hardAlpha"/>
<feOffset dy="3.30323"/>
<feGaussianBlur stdDeviation="1.65161"/>
<feComposite in2="hardAlpha" operator="out"/>
<feColorMatrix type="matrix" values="0 0 0 0 0 0 0 0 0 0 0 0 0 0 0 0 0 0 0.25 0"/>
<feBlend mode="normal" in2="BackgroundImageFix" result="effect1_dropShadow_381_4620"/>
<feBlend mode="normal" in="SourceGraphic" in2="effect1_dropShadow_381_4620" result="shape"/>
</filter>
</defs>
</svg>
